Coordinates
version=1
nRows=17
nColumns=36
inDegrees=yes

Units are S.I. units (second, meters, Newtons, ...)
If the header above contains a line with 'inDegrees', this indicates whether rotational values are in degrees (yes) or radians (no).

endheader
time	pelvis_tilt	pelvis_list	pelvis_rotation	pelvis_tx	pelvis_ty	pelvis_tz	hip_flexion_r	hip_adduction_r	hip_rotation_r	knee_angle_r	knee_angle_r_beta	ankle_angle_r	subtalar_angle_r	mtp_angle_r	hip_flexion_l	hip_adduction_l	hip_rotation_l	knee_angle_l	knee_angle_l_beta	ankle_angle_l	subtalar_angle_l	mtp_angle_l	lumbar_extension	lumbar_bending	lumbar_rotation	arm_flex_r	arm_add_r	arm_rot_r	elbow_flex_r	pro_sup_r	arm_flex_l	arm_add_l	arm_rot_l	elbow_flex_l	pro_sup_l
      1.24000000	     -9.06394688	     -0.85703397	      4.30083253	     -0.50666995	      0.99145665	     -0.59994768	     33.85310461	     -2.94775089	      2.46127664	     21.20461962	      0.37009043	      8.69187192	     -8.53916861	     -6.77611101	     36.02445191	     -4.20964692	     -3.03576272	     25.62028393	      0.44715831	      6.58607587	      6.69046307	     -6.77611101	    -22.62785889	     -2.06279838	      0.34450841	    -13.88163101	    -43.24454437	    -14.90739234	    142.18050963	    111.11020267	     33.95732454	    -46.46876474	     34.11712611	    119.02127307	    105.93774802
      1.25000000	     -8.87515620	     -0.99436805	      4.25728874	     -0.49809291	      0.96936539	     -0.59988506	     34.77489196	     -2.90203578	      2.14478953	     22.24086727	      0.38817636	      9.28665016	     -8.30574671	     -6.79669956	     37.16548260	     -4.50612048	     -3.58945620	     26.54714526	      0.46333509	      7.25899353	      6.57106230	     -6.79669956	    -23.53842390	     -1.95721707	      0.65412074	    -14.58732962	    -43.11601277	    -15.97699925	    143.07168179	    110.76938052	     33.55675752	    -46.63612857	     33.42492288	    120.42358437	    105.72532622
      1.26000000	     -8.64836217	     -1.16357324	      4.22134510	     -0.48959289	      0.94626783	     -0.59988250	     35.82278385	     -2.87231707	      1.77298766	     23.82788906	      0.41587512	     10.53346780	     -6.51505579	     -6.85265547	     38.45600293	     -4.87759947	     -4.06389255	     28.05442207	      0.48964203	      7.84325801	      7.79663418	     -6.85265547	    -24.49295182	     -1.79501500	      1.37652352	    -15.47637966	    -42.72312811	    -18.00136969	    144.04612338	    111.34497102	     33.96629511	    -46.04536210	     32.99486059	    121.12826624	    105.78509228
      1.27000000	     -8.42928816	     -1.35446148	      4.15445398	     -0.48128427	      0.92207824	     -0.59984555	     37.00076380	     -2.68089716	      2.10678960	     25.73696225	      0.44919473	     11.60840274	     -6.32992064	     -6.87584339	     39.86318568	     -5.16139084	     -3.96856802	     29.91648352	      0.52214114	      8.52876692	      7.96769974	     -6.87584339	    -25.38394339	     -1.66281459	      1.70113506	    -14.80495007	    -42.58990183	    -18.66234318	    144.46105725	    110.81023691	     34.41583324	    -45.67943838	     32.63088140	    121.99021545	    105.22348997
      1.28000000	     -8.09156082	     -1.48181340	      4.05018196	     -0.47249978	      0.89682309	     -0.59996885	     38.04283876	     -2.62770916	      2.52643057	     27.68394437	      0.48317598	     13.72540974	     -4.38785541	     -6.91693604	     41.00862007	     -5.38477720	     -3.68777876	     31.66310478	      0.55262543	      9.88124493	      9.65477886	     -6.91693604	    -26.21347219	     -1.62619510	      2.16126852	    -13.74445758	    -42.46639236	    -19.60422155	    144.48416348	    110.98365811	     35.33573981	    -44.77752334	     32.15359862	    122.36320521	    104.55816986
      1.29000000	     -7.81142069	     -1.48832845	      3.97833280	     -0.46371003	      0.87036038	     -0.60018882	     38.86808457	     -2.64201475	      3.23602056	     28.79578845	      0.50258132	     12.60844273	     -4.89976133	     -6.95872903	     42.04809246	     -5.30106106	     -3.23765994	     33.02414579	      0.57638008	      8.73508662	      9.20927726	     -6.95872903	    -26.90798051	     -1.73138725	      2.42348337	    -11.86749655	    -42.44731396	    -20.05413060	    144.12237075	    111.00699727	     36.58747164	    -43.95168137	     31.83235066	    122.56649742	    103.73593287
      1.30000000	     -7.87728047	     -1.52692215	      3.91843502	     -0.45655550	      0.84323287	     -0.60037888	     40.51148310	     -2.59196074	      3.22472886	     30.36118734	      0.52990268	      7.80463233	     -8.02081489	     -7.00714970	     44.16353612	     -5.30785662	     -3.46179649	     35.85077277	      0.62571402	      6.40176859	      7.14459088	     -7.00714970	    -27.33815686	     -1.82666741	      2.53880964	     -8.86556126	    -42.57286075	    -19.99347976	    143.37996214	    110.70346426	     38.28752604	    -43.03284981	     31.53185051	    122.54965573	    102.55812708
      1.31000000	     -8.66795672	     -1.73672486	      3.70337488	     -0.45256805	      0.81620030	     -0.60038925	     45.16249287	     -2.32269636	      2.53703352	     36.22304597	      0.63221142	      4.98879844	    -10.92488508	     -7.11505433	     49.04955654	     -5.78825118	     -3.86352155	     42.91624867	      0.74902984	      6.87506019	      4.89510652	     -7.11505433	    -27.30877460	     -1.80918911	      2.23919476	     -3.65670623	    -42.84877195	    -18.41363295	    141.77897222	    111.55863044	     39.86540419	    -42.25370137	     30.41980915	    122.48942664	    101.40011511
      1.32000000	     -9.77177877	     -2.00888679	      3.19879731	     -0.45040228	      0.79009151	     -0.60030194	     52.74291208	     -1.73938763	      2.76300859	     47.44679516	      0.82810279	      6.93695116	    -11.22079400	     -7.12366394	     55.89130161	     -6.17934321	     -2.44655604	     53.21295321	      0.92874124	      9.69338300	      2.76543208	     -7.12366394	    -27.27345257	     -1.82027566	      2.89510822	      0.87922611	    -43.08039100	    -18.16291509	    140.40167476	    111.22638387	     42.80512331	    -40.55953743	     30.28426702	    121.55493716	    101.23452833
      1.33000000	    -10.45648247	     -1.92767798	      2.75982944	     -0.44739037	      0.76664050	     -0.60073625	     59.99916741	     -1.34819197	      4.27826341	     58.92231265	      1.02838836	     11.48809209	     -6.35416703	     -7.18303497	     61.87234306	     -5.59394100	      0.08675731	     62.36122978	      1.08840879	     11.04687245	      0.60658700	     -7.18303497	    -27.83569055	     -1.93339254	      1.43929842	      9.62819145	    -42.79201602	    -12.98071142	    137.60539739	    110.69051633	     43.28467439	    -40.49186876	     27.23994962	    122.23458690	    101.72766479
      1.34000000	    -10.73698202	     -1.74950852	      2.34794420	     -0.44367739	      0.74560638	     -0.60115259	     65.11853394	     -0.89674316	      5.86876744	     66.27848180	      1.15677773	     12.09677648	     -5.26396645	     -7.22676337	     65.98221359	     -5.04867187	      1.57706380	     68.61090158	      1.19748614	     11.20812034	     -1.78758709	     -7.22676337	    -29.16270734	     -2.18695526	      0.76339847	     16.64958842	    -42.12540099	     -9.83142820	    135.53543461	    110.17814845	     45.26135865	    -39.87068870	     25.64465626	    122.57868328	    102.34954299
      1.35000000	    -10.56426275	     -1.54976540	      1.89572486	     -0.43973906	      0.72563971	     -0.60129932	     68.22546897	     -0.79356622	      6.19168710	     70.32454019	      1.22739477	     12.22767746	     -6.32098858	     -7.22942998	     68.44384229	     -5.36514782	      1.30209354	     73.18514817	      1.27732180	     12.62415595	     -3.09561927	     -7.22942998	    -31.18905468	     -2.60606632	      1.32693933	     21.39813943	    -41.88150609	     -9.83590802	    134.85070617	    109.98713505	     49.05461980	    -38.25888832	     25.64033515	    122.27455029	    102.32641283
      1.36000000	    -10.21285868	     -1.38867629	      1.43428957	     -0.43583241	      0.70552977	     -0.60116955	     70.33515068	     -0.84776897	      5.59388319	     73.37281341	      1.28059718	     12.82989657	     -9.15458087	     -7.25764446	     70.14576586	     -6.12163491	      0.57285789	     77.39325787	      1.35076717	     16.41668405	     -3.04871841	     -7.25764446	    -33.04127393	     -2.85730363	      0.15581720	     29.63830388	    -40.73531982	     -4.88586037	    132.45869526	    109.17250075	     51.67018456	    -38.70367427	     24.53931029	    122.93251235	    103.20908615
      1.37000000	     -9.83871046	     -1.22063577	      1.17510935	     -0.43152128	      0.68526472	     -0.60126737	     72.19883626	     -1.32560251	      4.62133305	     77.23805912	      1.34805844	     15.99895296	     -9.03742869	     -7.26437004	     71.73281077	     -6.66147428	      0.20170002	     81.65368927	      1.42512572	     20.17848189	     -2.18376971	     -7.26437004	    -34.77364111	     -3.17287050	      0.11164251	     35.28845742	    -39.98071594	     -3.26404230	    131.29722582	    109.10160091	     55.67604065	    -37.55350254	     24.68501117	    122.32289009	    103.71633674
      1.38000000	     -9.92746157	     -0.89016024	      1.09930042	     -0.42704841	      0.66469547	     -0.60169593	     74.65236072	     -2.01960260	      4.14459356	     81.74923056	      1.42679323	     19.06021725	     -9.18252444	     -7.26054875	     73.97223171	     -6.91755417	     -0.14446362	     85.90183226	      1.49926981	     22.77805811	     -2.47344685	     -7.26054875	    -35.81347717	     -3.55698740	      0.15178618	     40.01357851	    -39.47070212	     -2.11717219	    130.55341482	    109.86347791	     59.53062809	    -35.84514535	     24.72920324	    121.37889795	    104.47385679
      1.39000000	    -10.33220813	     -0.27082670	      1.09487599	     -0.42275701	      0.64493813	     -0.60204649	     77.65742367	     -2.71786543	      4.52861917	     86.27078360	      1.50570922	     21.66431326	     -8.25483337	     -7.26422020	     76.60324741	     -7.14935558	     -0.73859590	     90.02202754	      1.57118078	     24.59817921	     -1.81001642	     -7.26422020	    -36.50800775	     -4.23337768	     -0.17502846	     44.61676918	    -38.73458389	     -0.64739257	    130.11769906	    109.50908138	     63.19123647	    -34.27210555	     24.81216153	    120.73575528	    104.38885377
      1.40000000	    -10.65541995	      0.21226727	      1.05272777	     -0.41878975	      0.62691265	     -0.60235391	     80.59214362	     -3.26338134	      5.10880434	     90.52806501	      1.58001280	     24.55832232	     -4.92105784	     -7.28044781	     79.09025087	     -7.60299115	     -1.17926809	     93.89631275	      1.63879981	     26.51276809	      0.26942915	     -7.28044781	    -37.34211085	     -4.56401963	     -1.16156880	     50.38810641	    -37.05460217	      1.99463469	    129.15287758	    108.40921204	     66.07865717	    -33.85070229	     23.97266184	    121.17621651	    104.40149891
